<mxfile host="app.diagrams.net" modified="2024-05-05T22:30:36.314Z" agent="Mozilla/5.0 (X11; Linux x86_64; rv:125.0) Gecko/20100101 Firefox/125.0" etag="IfwK0K4jkA6LRVkDusGY" version="24.3.1" type="device">
  <diagram name="Page-1" id="cY-38Ls28AD-EeQk1Bip">
    <mxGraphModel dx="962" dy="643" grid="1" gridSize="10" guides="1" tooltips="1" connect="1" arrows="1" fold="1" page="1" pageScale="1" pageWidth="850" pageHeight="1100" math="0" shadow="0">
      <root>
        <mxCell id="0" />
        <mxCell id="1" parent="0" />
        <mxCell id="c6MpbJ5lcOAunPdSEHtG-8" style="edgeStyle=orthogonalEdgeStyle;rounded=0;orthogonalLoop=1;jettySize=auto;html=1;exitX=1;exitY=0.5;exitDx=0;exitDy=0;entryX=0;entryY=0.5;entryDx=0;entryDy=0;" edge="1" parent="1" source="c6MpbJ5lcOAunPdSEHtG-1" target="c6MpbJ5lcOAunPdSEHtG-3">
          <mxGeometry relative="1" as="geometry" />
        </mxCell>
        <mxCell id="c6MpbJ5lcOAunPdSEHtG-20" style="edgeStyle=orthogonalEdgeStyle;rounded=0;orthogonalLoop=1;jettySize=auto;html=1;exitX=1;exitY=0.5;exitDx=0;exitDy=0;entryX=0;entryY=0.5;entryDx=0;entryDy=0;" edge="1" parent="1" source="c6MpbJ5lcOAunPdSEHtG-1" target="c6MpbJ5lcOAunPdSEHtG-16">
          <mxGeometry relative="1" as="geometry">
            <Array as="points">
              <mxPoint x="240" y="360" />
              <mxPoint x="240" y="470" />
            </Array>
          </mxGeometry>
        </mxCell>
        <mxCell id="c6MpbJ5lcOAunPdSEHtG-21" style="edgeStyle=orthogonalEdgeStyle;rounded=0;orthogonalLoop=1;jettySize=auto;html=1;exitX=1;exitY=0.5;exitDx=0;exitDy=0;entryX=0;entryY=0.5;entryDx=0;entryDy=0;" edge="1" parent="1" source="c6MpbJ5lcOAunPdSEHtG-1" target="c6MpbJ5lcOAunPdSEHtG-11">
          <mxGeometry relative="1" as="geometry">
            <Array as="points">
              <mxPoint x="240" y="360" />
              <mxPoint x="240" y="250" />
            </Array>
          </mxGeometry>
        </mxCell>
        <mxCell id="c6MpbJ5lcOAunPdSEHtG-1" value="&lt;font style=&quot;font-size: 13px;&quot;&gt;Requirements&lt;/font&gt;" style="rounded=1;whiteSpace=wrap;html=1;" vertex="1" parent="1">
          <mxGeometry x="90" y="330" width="120" height="60" as="geometry" />
        </mxCell>
        <mxCell id="c6MpbJ5lcOAunPdSEHtG-6" style="edgeStyle=orthogonalEdgeStyle;rounded=0;orthogonalLoop=1;jettySize=auto;html=1;exitX=1;exitY=0.5;exitDx=0;exitDy=0;entryX=0;entryY=0.5;entryDx=0;entryDy=0;" edge="1" parent="1" source="c6MpbJ5lcOAunPdSEHtG-3" target="c6MpbJ5lcOAunPdSEHtG-4">
          <mxGeometry relative="1" as="geometry" />
        </mxCell>
        <mxCell id="c6MpbJ5lcOAunPdSEHtG-3" value="&lt;div&gt;Design &amp;amp;&amp;nbsp;&lt;/div&gt;&lt;div&gt;Develpment&lt;/div&gt;" style="rounded=1;whiteSpace=wrap;html=1;" vertex="1" parent="1">
          <mxGeometry x="305" y="330" width="120" height="60" as="geometry" />
        </mxCell>
        <mxCell id="c6MpbJ5lcOAunPdSEHtG-7" style="edgeStyle=orthogonalEdgeStyle;rounded=0;orthogonalLoop=1;jettySize=auto;html=1;exitX=1;exitY=0.5;exitDx=0;exitDy=0;entryX=0;entryY=0.5;entryDx=0;entryDy=0;" edge="1" parent="1" source="c6MpbJ5lcOAunPdSEHtG-4" target="c6MpbJ5lcOAunPdSEHtG-5">
          <mxGeometry relative="1" as="geometry" />
        </mxCell>
        <mxCell id="c6MpbJ5lcOAunPdSEHtG-4" value="Testing" style="rounded=1;whiteSpace=wrap;html=1;" vertex="1" parent="1">
          <mxGeometry x="490" y="330" width="120" height="60" as="geometry" />
        </mxCell>
        <mxCell id="c6MpbJ5lcOAunPdSEHtG-5" value="Implementation" style="rounded=1;whiteSpace=wrap;html=1;" vertex="1" parent="1">
          <mxGeometry x="680" y="330" width="120" height="60" as="geometry" />
        </mxCell>
        <mxCell id="c6MpbJ5lcOAunPdSEHtG-9" value="&lt;font style=&quot;font-size: 13px;&quot;&gt;Build 1&lt;br&gt;&lt;/font&gt;" style="text;html=1;align=center;verticalAlign=middle;whiteSpace=wrap;rounded=0;" vertex="1" parent="1">
          <mxGeometry x="240" y="230" width="60" height="20" as="geometry" />
        </mxCell>
        <mxCell id="c6MpbJ5lcOAunPdSEHtG-10" style="edgeStyle=orthogonalEdgeStyle;rounded=0;orthogonalLoop=1;jettySize=auto;html=1;exitX=1;exitY=0.5;exitDx=0;exitDy=0;entryX=0;entryY=0.5;entryDx=0;entryDy=0;" edge="1" parent="1" source="c6MpbJ5lcOAunPdSEHtG-11" target="c6MpbJ5lcOAunPdSEHtG-13">
          <mxGeometry relative="1" as="geometry" />
        </mxCell>
        <mxCell id="c6MpbJ5lcOAunPdSEHtG-11" value="&lt;div&gt;Design &amp;amp;&amp;nbsp;&lt;/div&gt;&lt;div&gt;Develpment&lt;/div&gt;" style="rounded=1;whiteSpace=wrap;html=1;" vertex="1" parent="1">
          <mxGeometry x="305" y="220" width="120" height="60" as="geometry" />
        </mxCell>
        <mxCell id="c6MpbJ5lcOAunPdSEHtG-12" style="edgeStyle=orthogonalEdgeStyle;rounded=0;orthogonalLoop=1;jettySize=auto;html=1;exitX=1;exitY=0.5;exitDx=0;exitDy=0;entryX=0;entryY=0.5;entryDx=0;entryDy=0;" edge="1" parent="1" source="c6MpbJ5lcOAunPdSEHtG-13" target="c6MpbJ5lcOAunPdSEHtG-14">
          <mxGeometry relative="1" as="geometry" />
        </mxCell>
        <mxCell id="c6MpbJ5lcOAunPdSEHtG-13" value="Testing" style="rounded=1;whiteSpace=wrap;html=1;" vertex="1" parent="1">
          <mxGeometry x="490" y="220" width="120" height="60" as="geometry" />
        </mxCell>
        <mxCell id="c6MpbJ5lcOAunPdSEHtG-14" value="Implementation" style="rounded=1;whiteSpace=wrap;html=1;" vertex="1" parent="1">
          <mxGeometry x="680" y="220" width="120" height="60" as="geometry" />
        </mxCell>
        <mxCell id="c6MpbJ5lcOAunPdSEHtG-15" style="edgeStyle=orthogonalEdgeStyle;rounded=0;orthogonalLoop=1;jettySize=auto;html=1;exitX=1;exitY=0.5;exitDx=0;exitDy=0;entryX=0;entryY=0.5;entryDx=0;entryDy=0;" edge="1" parent="1" source="c6MpbJ5lcOAunPdSEHtG-16" target="c6MpbJ5lcOAunPdSEHtG-18">
          <mxGeometry relative="1" as="geometry" />
        </mxCell>
        <mxCell id="c6MpbJ5lcOAunPdSEHtG-16" value="&lt;div&gt;Design &amp;amp;&amp;nbsp;&lt;/div&gt;&lt;div&gt;Develpment&lt;/div&gt;" style="rounded=1;whiteSpace=wrap;html=1;" vertex="1" parent="1">
          <mxGeometry x="305" y="440" width="120" height="60" as="geometry" />
        </mxCell>
        <mxCell id="c6MpbJ5lcOAunPdSEHtG-17" style="edgeStyle=orthogonalEdgeStyle;rounded=0;orthogonalLoop=1;jettySize=auto;html=1;exitX=1;exitY=0.5;exitDx=0;exitDy=0;entryX=0;entryY=0.5;entryDx=0;entryDy=0;" edge="1" parent="1" source="c6MpbJ5lcOAunPdSEHtG-18" target="c6MpbJ5lcOAunPdSEHtG-19">
          <mxGeometry relative="1" as="geometry" />
        </mxCell>
        <mxCell id="c6MpbJ5lcOAunPdSEHtG-18" value="Testing" style="rounded=1;whiteSpace=wrap;html=1;" vertex="1" parent="1">
          <mxGeometry x="490" y="440" width="120" height="60" as="geometry" />
        </mxCell>
        <mxCell id="c6MpbJ5lcOAunPdSEHtG-19" value="Implementation" style="rounded=1;whiteSpace=wrap;html=1;" vertex="1" parent="1">
          <mxGeometry x="680" y="440" width="120" height="60" as="geometry" />
        </mxCell>
        <mxCell id="c6MpbJ5lcOAunPdSEHtG-22" value="&lt;font style=&quot;font-size: 13px;&quot;&gt;Build 2&lt;br&gt;&lt;/font&gt;" style="text;html=1;align=center;verticalAlign=middle;whiteSpace=wrap;rounded=0;" vertex="1" parent="1">
          <mxGeometry x="241" y="340" width="60" height="20" as="geometry" />
        </mxCell>
        <mxCell id="c6MpbJ5lcOAunPdSEHtG-23" value="&lt;font style=&quot;font-size: 13px;&quot;&gt;Build 3&lt;br&gt;&lt;/font&gt;" style="text;html=1;align=center;verticalAlign=middle;whiteSpace=wrap;rounded=0;" vertex="1" parent="1">
          <mxGeometry x="240" y="450" width="60" height="20" as="geometry" />
        </mxCell>
      </root>
    </mxGraphModel>
  </diagram>
</mxfile>
